<?xml version="1.0" standalone="no"?>
<!DOCTYPE svg PUBLIC "-//W3C//DTD SVG 20010904//EN"
 "http://www.w3.org/TR/2001/REC-SVG-20010904/DTD/svg10.dtd">
<svg version="1.0" xmlns="http://www.w3.org/2000/svg"
 width="256.000000pt" height="256.000000pt" viewBox="0 0 256.000000 256.000000"
 preserveAspectRatio="xMidYMid meet">
<metadata>
Created by potrace 1.11, written by Peter Selinger 2001-2013
</metadata>
<g transform="translate(0.000000,256.000000) scale(0.100000,-0.100000)"
fill="#000000" stroke="none">
<path d="M1450 2224 c-257 -53 -542 -219 -738 -429 -53 -56 -162 -195 -195
-247 -84 -135 -153 -307 -181 -453 -14 -72 -16 -261 -4 -305 2 -8 8 -31 12
-50 13 -52 43 -120 79 -172 35 -52 63 -61 95 -31 10 10 67 63 127 118 230 212
425 408 464 469 23 35 57 103 77 151 96 238 156 314 398 500 50 38 161 116
246 172 208 137 203 132 188 162 -18 33 -120 87 -209 110 -89 23 -262 25 -359
5z m315 -79 c22 -4 62 -17 89 -29 l49 -22 -93 -58 c-173 -110 -387 -273 -480
-366 -92 -90 -152 -188 -215 -348 -70 -175 -99 -208 -570 -645 l-60 -56 -22
43 c-41 81 -57 155 -56 271 1 283 144 579 403 835 198 196 436 329 670 374 71
13 221 14 285 1z"/>
<path d="M2015 1994 c-234 -215 -296 -274 -410 -389 -142 -142 -166 -177 -240
-354 -56 -133 -122 -236 -197 -307 -95 -90 -259 -215 -428 -325 -208 -135
-211 -138 -200 -166 11 -28 96 -77 180 -104 93 -30 283 -34 403 -9 245 52 479
184 688 390 220 218 365 469 414 722 16 82 17 254 1 328 -16 76 -69 198 -104
238 -28 32 -51 27 -107 -24z m78 -88 c79 -120 82 -375 8 -589 -113 -326 -412
-652 -741 -809 -211 -101 -446 -131 -610 -79 -101 32 -101 32 -13 86 82 52
298 203 347 245 105 89 174 151 191 172 75 89 107 146 175 304 27 65 64 140
82 166 36 52 225 242 408 408 63 58 117 108 118 113 6 13 20 7 35 -17z"/>
</g>
</svg>
